<mxfile host="app.diagrams.net" agent="Mozilla/5.0 (Windows NT 10.0; Win64; x64) AppleWebKit/537.36 (KHTML, like Gecko) Chrome/129.0.0.0 Safari/537.36" version="24.7.17">
  <diagram name="PÃ¡gina-1" id="HpcF04neRlfk61U_BmMo">
    <mxGraphModel dx="1600" dy="924" grid="1" gridSize="10" guides="1" tooltips="1" connect="1" arrows="1" fold="1" page="1" pageScale="1" pageWidth="827" pageHeight="1169" math="0" shadow="0">
      <root>
        <mxCell id="0" />
        <mxCell id="1" parent="0" />
        <mxCell id="HlTpHQT_LpQZvoVh_AyP-49" value="Inicio Sesion" style="swimlane;whiteSpace=wrap;html=1;" vertex="1" parent="1">
          <mxGeometry x="40" y="70" width="1870" height="710" as="geometry" />
        </mxCell>
        <mxCell id="HlTpHQT_LpQZvoVh_AyP-50" style="edgeStyle=orthogonalEdgeStyle;rounded=0;orthogonalLoop=1;jettySize=auto;html=1;entryX=0;entryY=0.25;entryDx=0;entryDy=0;endArrow=none;endFill=0;" edge="1" parent="HlTpHQT_LpQZvoVh_AyP-49" source="HlTpHQT_LpQZvoVh_AyP-51" target="HlTpHQT_LpQZvoVh_AyP-61">
          <mxGeometry relative="1" as="geometry">
            <Array as="points">
              <mxPoint x="119" y="510" />
              <mxPoint x="119" y="510" />
            </Array>
          </mxGeometry>
        </mxCell>
        <mxCell id="HlTpHQT_LpQZvoVh_AyP-51" value="Usuario" style="shape=umlActor;verticalLabelPosition=bottom;verticalAlign=top;html=1;outlineConnect=0;" vertex="1" parent="HlTpHQT_LpQZvoVh_AyP-49">
          <mxGeometry x="31" y="440" width="50" height="90" as="geometry" />
        </mxCell>
        <mxCell id="HlTpHQT_LpQZvoVh_AyP-52" value="" style="endArrow=classic;html=1;rounded=0;" edge="1" parent="HlTpHQT_LpQZvoVh_AyP-49">
          <mxGeometry width="50" height="50" relative="1" as="geometry">
            <mxPoint x="461" y="490" as="sourcePoint" />
            <mxPoint x="241" y="490" as="targetPoint" />
          </mxGeometry>
        </mxCell>
        <mxCell id="HlTpHQT_LpQZvoVh_AyP-53" value="1:Pide rellenar formulario de inicio sesion" style="edgeLabel;html=1;align=center;verticalAlign=middle;resizable=0;points=[];" vertex="1" connectable="0" parent="HlTpHQT_LpQZvoVh_AyP-52">
          <mxGeometry x="-0.6446" relative="1" as="geometry">
            <mxPoint x="-71" as="offset" />
          </mxGeometry>
        </mxCell>
        <mxCell id="HlTpHQT_LpQZvoVh_AyP-54" value="" style="endArrow=classic;html=1;rounded=0;" edge="1" parent="HlTpHQT_LpQZvoVh_AyP-49">
          <mxGeometry width="50" height="50" relative="1" as="geometry">
            <mxPoint x="221" y="530" as="sourcePoint" />
            <mxPoint x="461" y="530" as="targetPoint" />
          </mxGeometry>
        </mxCell>
        <mxCell id="HlTpHQT_LpQZvoVh_AyP-55" value="1.1:Rellena con sus datos el formulario" style="edgeLabel;html=1;align=center;verticalAlign=middle;resizable=0;points=[];" vertex="1" connectable="0" parent="HlTpHQT_LpQZvoVh_AyP-54">
          <mxGeometry x="0.5254" relative="1" as="geometry">
            <mxPoint x="-57" as="offset" />
          </mxGeometry>
        </mxCell>
        <mxCell id="HlTpHQT_LpQZvoVh_AyP-56" value="" style="endArrow=open;html=1;rounded=0;endFill=0;dashed=1;dashPattern=12 12;" edge="1" parent="HlTpHQT_LpQZvoVh_AyP-49">
          <mxGeometry width="50" height="50" relative="1" as="geometry">
            <mxPoint x="451" y="580" as="sourcePoint" />
            <mxPoint x="211" y="580" as="targetPoint" />
          </mxGeometry>
        </mxCell>
        <mxCell id="HlTpHQT_LpQZvoVh_AyP-57" value="1.8[No registrado]:Notificar que el usuario no esta registrado" style="edgeLabel;html=1;align=center;verticalAlign=middle;resizable=0;points=[];" vertex="1" connectable="0" parent="HlTpHQT_LpQZvoVh_AyP-56">
          <mxGeometry x="0.4869" y="-5" relative="1" as="geometry">
            <mxPoint x="94" y="20" as="offset" />
          </mxGeometry>
        </mxCell>
        <mxCell id="HlTpHQT_LpQZvoVh_AyP-58" value="1.8[Esta registrado]:Notificar que inicio sesion correctamente" style="edgeLabel;html=1;align=center;verticalAlign=middle;resizable=0;points=[];" vertex="1" connectable="0" parent="HlTpHQT_LpQZvoVh_AyP-56">
          <mxGeometry x="-0.2512" y="-3" relative="1" as="geometry">
            <mxPoint x="6" y="43" as="offset" />
          </mxGeometry>
        </mxCell>
        <mxCell id="HlTpHQT_LpQZvoVh_AyP-59" value="BaseRouter" style="rounded=0;whiteSpace=wrap;html=1;" vertex="1" parent="HlTpHQT_LpQZvoVh_AyP-49">
          <mxGeometry x="516" y="130" width="120" height="60" as="geometry" />
        </mxCell>
        <mxCell id="HlTpHQT_LpQZvoVh_AyP-60" style="edgeStyle=orthogonalEdgeStyle;rounded=0;orthogonalLoop=1;jettySize=auto;html=1;endArrow=none;endFill=0;" edge="1" parent="HlTpHQT_LpQZvoVh_AyP-49" source="HlTpHQT_LpQZvoVh_AyP-61" target="HlTpHQT_LpQZvoVh_AyP-59">
          <mxGeometry relative="1" as="geometry">
            <Array as="points">
              <mxPoint x="576" y="380" />
              <mxPoint x="576" y="380" />
            </Array>
          </mxGeometry>
        </mxCell>
        <mxCell id="HlTpHQT_LpQZvoVh_AyP-61" value="App" style="rounded=0;whiteSpace=wrap;html=1;" vertex="1" parent="HlTpHQT_LpQZvoVh_AyP-49">
          <mxGeometry x="526" y="490" width="140" height="80" as="geometry" />
        </mxCell>
        <mxCell id="HlTpHQT_LpQZvoVh_AyP-62" value="API" style="rounded=0;whiteSpace=wrap;html=1;" vertex="1" parent="HlTpHQT_LpQZvoVh_AyP-49">
          <mxGeometry x="1336" y="570" width="170" height="90" as="geometry" />
        </mxCell>
        <mxCell id="HlTpHQT_LpQZvoVh_AyP-63" style="edgeStyle=orthogonalEdgeStyle;rounded=0;orthogonalLoop=1;jettySize=auto;html=1;endArrow=none;endFill=0;" edge="1" parent="HlTpHQT_LpQZvoVh_AyP-49" source="HlTpHQT_LpQZvoVh_AyP-64" target="HlTpHQT_LpQZvoVh_AyP-62">
          <mxGeometry relative="1" as="geometry">
            <Array as="points">
              <mxPoint x="1431" y="440" />
              <mxPoint x="1431" y="440" />
            </Array>
          </mxGeometry>
        </mxCell>
        <mxCell id="HlTpHQT_LpQZvoVh_AyP-64" value="Login" style="rounded=0;whiteSpace=wrap;html=1;" vertex="1" parent="HlTpHQT_LpQZvoVh_AyP-49">
          <mxGeometry x="1376" y="160" width="170" height="70" as="geometry" />
        </mxCell>
        <mxCell id="HlTpHQT_LpQZvoVh_AyP-65" value="" style="endArrow=classic;html=1;rounded=0;" edge="1" parent="HlTpHQT_LpQZvoVh_AyP-49">
          <mxGeometry width="50" height="50" relative="1" as="geometry">
            <mxPoint x="548" y="410" as="sourcePoint" />
            <mxPoint x="548" y="210" as="targetPoint" />
          </mxGeometry>
        </mxCell>
        <mxCell id="HlTpHQT_LpQZvoVh_AyP-66" value="1.9[Esta registrado]:Peticion de cambio de magina a dashboard" style="edgeLabel;html=1;align=center;verticalAlign=middle;resizable=0;points=[];" vertex="1" connectable="0" parent="HlTpHQT_LpQZvoVh_AyP-65">
          <mxGeometry x="0.0013" y="2" relative="1" as="geometry">
            <mxPoint x="-136" y="-40" as="offset" />
          </mxGeometry>
        </mxCell>
        <mxCell id="HlTpHQT_LpQZvoVh_AyP-67" value="" style="endArrow=classic;html=1;rounded=0;" edge="1" parent="HlTpHQT_LpQZvoVh_AyP-49">
          <mxGeometry width="50" height="50" relative="1" as="geometry">
            <mxPoint x="1486" y="310" as="sourcePoint" />
            <mxPoint x="1486" y="480" as="targetPoint" />
            <Array as="points" />
          </mxGeometry>
        </mxCell>
        <mxCell id="HlTpHQT_LpQZvoVh_AyP-68" value="1.3:Enviar datos" style="edgeLabel;html=1;align=center;verticalAlign=middle;resizable=0;points=[];" vertex="1" connectable="0" parent="HlTpHQT_LpQZvoVh_AyP-67">
          <mxGeometry x="0.1743" y="2" relative="1" as="geometry">
            <mxPoint x="18" y="-10" as="offset" />
          </mxGeometry>
        </mxCell>
        <mxCell id="HlTpHQT_LpQZvoVh_AyP-69" value="" style="endArrow=open;html=1;rounded=0;endFill=0;dashed=1;dashPattern=12 12;" edge="1" parent="HlTpHQT_LpQZvoVh_AyP-49">
          <mxGeometry width="50" height="50" relative="1" as="geometry">
            <mxPoint x="1376" y="501" as="sourcePoint" />
            <mxPoint x="1376" y="321" as="targetPoint" />
          </mxGeometry>
        </mxCell>
        <mxCell id="HlTpHQT_LpQZvoVh_AyP-70" value="1.6[No registrado]:Notificar invalidez de los datos" style="edgeLabel;html=1;align=center;verticalAlign=middle;resizable=0;points=[];" vertex="1" connectable="0" parent="HlTpHQT_LpQZvoVh_AyP-69">
          <mxGeometry x="0.3346" relative="1" as="geometry">
            <mxPoint x="-80" y="10" as="offset" />
          </mxGeometry>
        </mxCell>
        <mxCell id="HlTpHQT_LpQZvoVh_AyP-71" value="1.6[Esta registrado]:Notificar que los datos son correctos" style="edgeLabel;html=1;align=center;verticalAlign=middle;resizable=0;points=[];" vertex="1" connectable="0" parent="HlTpHQT_LpQZvoVh_AyP-69">
          <mxGeometry x="-0.4074" y="3" relative="1" as="geometry">
            <mxPoint x="-87" y="-17" as="offset" />
          </mxGeometry>
        </mxCell>
        <mxCell id="HlTpHQT_LpQZvoVh_AyP-72" value="" style="endArrow=none;html=1;rounded=0;entryX=0;entryY=1;entryDx=0;entryDy=0;exitX=1;exitY=0.5;exitDx=0;exitDy=0;endFill=0;" edge="1" parent="HlTpHQT_LpQZvoVh_AyP-49" source="HlTpHQT_LpQZvoVh_AyP-61" target="HlTpHQT_LpQZvoVh_AyP-64">
          <mxGeometry width="50" height="50" relative="1" as="geometry">
            <mxPoint x="706" y="470" as="sourcePoint" />
            <mxPoint x="886" y="360" as="targetPoint" />
          </mxGeometry>
        </mxCell>
        <mxCell id="HlTpHQT_LpQZvoVh_AyP-73" value="" style="endArrow=classic;html=1;rounded=0;" edge="1" parent="HlTpHQT_LpQZvoVh_AyP-49">
          <mxGeometry width="50" height="50" relative="1" as="geometry">
            <mxPoint x="876" y="390" as="sourcePoint" />
            <mxPoint x="1226" y="260" as="targetPoint" />
          </mxGeometry>
        </mxCell>
        <mxCell id="HlTpHQT_LpQZvoVh_AyP-74" value="1.2:Envio de datos para ser revisados" style="edgeLabel;html=1;align=center;verticalAlign=middle;resizable=0;points=[];" vertex="1" connectable="0" parent="HlTpHQT_LpQZvoVh_AyP-73">
          <mxGeometry x="-0.2113" y="3" relative="1" as="geometry">
            <mxPoint x="-17" y="-26" as="offset" />
          </mxGeometry>
        </mxCell>
        <mxCell id="HlTpHQT_LpQZvoVh_AyP-75" value="" style="endArrow=open;html=1;rounded=0;endFill=0;dashed=1;dashPattern=12 12;" edge="1" parent="HlTpHQT_LpQZvoVh_AyP-49">
          <mxGeometry width="50" height="50" relative="1" as="geometry">
            <mxPoint x="1159" y="360" as="sourcePoint" />
            <mxPoint x="789" y="520" as="targetPoint" />
          </mxGeometry>
        </mxCell>
        <mxCell id="HlTpHQT_LpQZvoVh_AyP-76" value="1.7[No registrado]:Mostrar mensaje de datos de usuario no encontrado" style="edgeLabel;html=1;align=center;verticalAlign=middle;resizable=0;points=[];" vertex="1" connectable="0" parent="HlTpHQT_LpQZvoVh_AyP-75">
          <mxGeometry x="0.4265" y="-4" relative="1" as="geometry">
            <mxPoint x="126" y="19" as="offset" />
          </mxGeometry>
        </mxCell>
        <mxCell id="HlTpHQT_LpQZvoVh_AyP-77" value="1.7[Esta Registrado]:Notificar inicio sesion completado" style="edgeLabel;html=1;align=center;verticalAlign=middle;resizable=0;points=[];" vertex="1" connectable="0" parent="HlTpHQT_LpQZvoVh_AyP-75">
          <mxGeometry x="0.7337" y="-1" relative="1" as="geometry">
            <mxPoint x="141" y="22" as="offset" />
          </mxGeometry>
        </mxCell>
        <mxCell id="HlTpHQT_LpQZvoVh_AyP-78" value="1.5[No registrado]:No hay registro de datos introducidos" style="html=1;verticalAlign=bottom;startArrow=circle;startFill=1;endArrow=open;startSize=6;endSize=8;curved=0;rounded=0;dashed=1;dashPattern=12 12;entryX=1;entryY=0;entryDx=0;entryDy=5;entryPerimeter=0;" edge="1" parent="HlTpHQT_LpQZvoVh_AyP-49">
          <mxGeometry x="-1" y="-37" width="80" relative="1" as="geometry">
            <mxPoint x="1636" y="650" as="sourcePoint" />
            <mxPoint x="1506" y="650" as="targetPoint" />
            <mxPoint x="24" y="9" as="offset" />
          </mxGeometry>
        </mxCell>
        <mxCell id="HlTpHQT_LpQZvoVh_AyP-79" value="1.5[Esta registrado]:Notificar que el usuario esta en la base de datos" style="edgeLabel;html=1;align=center;verticalAlign=middle;resizable=0;points=[];" vertex="1" connectable="0" parent="HlTpHQT_LpQZvoVh_AyP-78">
          <mxGeometry x="-0.4615" y="3" relative="1" as="geometry">
            <mxPoint x="78" y="-21" as="offset" />
          </mxGeometry>
        </mxCell>
        <mxCell id="HlTpHQT_LpQZvoVh_AyP-80" value="" style="group" vertex="1" connectable="0" parent="HlTpHQT_LpQZvoVh_AyP-49">
          <mxGeometry x="1513" y="582" width="120" as="geometry" />
        </mxCell>
        <mxCell id="HlTpHQT_LpQZvoVh_AyP-81" value="1.4:Comparar datos con los registrados en la base de datos" style="html=1;verticalAlign=bottom;startArrow=none;startFill=0;endArrow=oval;curved=0;rounded=0;endFill=1;targetPerimeterSpacing=2;endSize=14;" edge="1" parent="HlTpHQT_LpQZvoVh_AyP-80">
          <mxGeometry x="1" y="30" width="80" relative="1" as="geometry">
            <mxPoint as="sourcePoint" />
            <mxPoint x="120" as="targetPoint" />
            <mxPoint x="27" y="18" as="offset" />
            <Array as="points">
              <mxPoint x="56" />
            </Array>
          </mxGeometry>
        </mxCell>
        <mxCell id="HlTpHQT_LpQZvoVh_AyP-82" value="" style="endArrow=open;endFill=1;endSize=12;html=1;rounded=0;" edge="1" parent="HlTpHQT_LpQZvoVh_AyP-80">
          <mxGeometry width="160" relative="1" as="geometry">
            <mxPoint as="sourcePoint" />
            <mxPoint x="112" as="targetPoint" />
          </mxGeometry>
        </mxCell>
      </root>
    </mxGraphModel>
  </diagram>
</mxfile>
